<?xml version="1.0" standalone="no"?>
<!DOCTYPE svg PUBLIC "-//W3C//DTD SVG 20010904//EN"
 "http://www.w3.org/TR/2001/REC-SVG-20010904/DTD/svg10.dtd">
<svg version="1.0" xmlns="http://www.w3.org/2000/svg"
 width="100" height="100" viewBox="0 0 500.000000 500.000000"
 preserveAspectRatio="xMidYMid meet">

<g transform="translate(0.000000,500.000000) scale(0.100000,-0.100000)"
fill="#000000" stroke="none">
<path d="M1782 4889 c-6 -19 -26 -77 -45 -130 l-34 -96 -28 64 c-24 56 -115
173 -134 173 -3 0 -6 -30 -7 -68 0 -37 -4 -89 -8 -116 l-8 -50 -20 32 c-13 21
-43 43 -85 63 -35 17 -66 29 -69 27 -2 -2 0 -20 5 -39 5 -19 12 -62 15 -97 l6
-62 -23 14 c-12 8 -53 27 -90 41 -38 14 -86 34 -107 45 l-39 20 40 -87 c22
-48 45 -93 51 -101 12 -14 14 -14 -64 2 -14 3 -40 3 -57 0 l-31 -7 24 -22 c14
-12 36 -45 49 -71 l25 -49 -107 3 c-58 2 -117 2 -130 1 -23 -4 -22 -6 20 -33
56 -37 151 -136 136 -141 -25 -7 -158 -25 -189 -25 l-33 -1 82 -79 c45 -44 79
-81 75 -84 -4 -2 -47 -16 -96 -30 -49 -14 -91 -27 -93 -30 -7 -6 91 -65 140
-83 26 -9 47 -20 46 -23 -1 -3 -36 -37 -78 -76 l-77 -71 87 -33 88 -33 -27
-33 c-14 -18 -41 -41 -59 -51 -18 -10 -33 -21 -33 -24 0 -14 68 -31 147 -36
l82 -6 -54 -79 c-30 -44 -55 -81 -55 -84 0 -2 25 -4 55 -4 30 0 55 -2 55 -4 0
-2 -16 -30 -36 -62 -60 -100 -115 -223 -159 -358 l-42 -130 -12 97 -13 98 31
34 c82 94 68 297 -30 444 -93 140 -223 210 -505 275 l-61 14 27 -57 c16 -31
42 -112 60 -181 51 -199 87 -302 128 -366 68 -105 154 -163 256 -173 55 -6 60
-8 69 -36 12 -39 13 -306 3 -570 -9 -225 -2 -326 35 -509 17 -83 33 -137 94
-321 4 -12 -4 -6 -21 15 -16 19 -45 53 -64 74 -33 36 -35 44 -35 106 0 89 -35
148 -124 207 -95 64 -151 78 -311 77 -143 -1 -232 -18 -341 -65 l-52 -23 56
-13 c73 -16 111 -41 229 -152 112 -104 149 -129 235 -161 79 -28 166 -25 235
9 25 13 53 21 62 18 24 -9 116 -128 181 -232 l60 -97 7 46 c6 41 2 57 -32 129
-53 116 -110 297 -123 394 -8 61 -8 108 0 176 11 90 57 257 71 257 4 -1 18 -7
32 -15 38 -22 149 -19 223 6 134 45 269 132 401 258 117 114 205 246 222 336
l7 38 -34 -7 c-19 -4 -122 -13 -229 -21 -208 -15 -266 -24 -345 -50 -194 -66
-350 -249 -350 -412 0 -50 4 -67 21 -83 l21 -21 -33 -97 c-19 -53 -34 -110
-34 -125 0 -16 -4 -26 -8 -23 -15 9 -22 228 -12 366 21 267 87 515 197 732 62
121 106 178 139 178 15 0 10 -20 -26 -89 -11 -22 -20 -43 -20 -46 0 -3 20 -5
45 -5 39 0 94 15 169 45 17 8 18 3 14 -76 -3 -46 -8 -92 -12 -101 -12 -26 7
-23 77 13 63 32 76 29 78 -16 0 -11 6 -38 13 -60 l12 -40 55 53 c31 28 58 52
61 52 2 0 17 -28 33 -62 16 -35 31 -65 33 -68 2 -3 19 13 38 34 38 44 34 45
81 -22 l16 -23 30 53 30 52 37 -42 c21 -23 40 -42 43 -42 3 0 17 31 32 69 l27
68 43 -24 c24 -13 49 -30 55 -38 21 -25 27 -17 34 46 6 52 10 60 24 53 31 -13
111 -28 118 -22 3 4 -9 45 -26 93 -18 47 -31 87 -29 90 7 7 132 -55 155 -77
13 -11 24 -15 28 -10 6 10 -9 139 -20 176 -7 21 -5 20 89 -8 26 -8 47 -12 47
-8 0 4 -13 30 -29 59 -34 61 -37 58 82 69 42 3 77 9 77 11 0 13 -74 104 -98
122 l-27 19 25 6 c14 3 42 8 63 13 l38 8 -68 49 -67 48 96 37 c98 37 125 51
94 51 -9 0 -45 14 -79 31 -34 18 -77 37 -95 43 l-33 12 69 54 c39 30 78 60 88
66 14 8 5 13 -52 28 -38 10 -73 22 -77 26 -5 4 6 19 24 34 18 15 47 46 66 69
l33 42 -95 15 -95 15 46 58 c25 32 43 62 39 65 -4 4 -60 7 -126 7 -65 0 -118
2 -117 5 19 40 89 242 86 245 -4 4 -177 -36 -208 -49 -13 -5 -15 9 -17 91 -1
53 -4 102 -7 109 -3 8 -36 -19 -84 -69 l-80 -81 -7 49 c-8 63 -43 185 -53 185
-4 0 -38 -43 -77 -95 l-70 -95 -14 28 c-8 15 -27 62 -42 106 l-27 78 -10 -33z
m264 -135 l18 -96 -24 -45 c-13 -25 -26 -40 -28 -34 -2 7 -17 -14 -32 -46 -46
-94 -47 -93 -46 20 1 86 -1 100 -10 79 l-11 -27 -7 33 c-6 26 -2 45 18 85 26
54 81 127 96 127 4 0 16 -43 26 -96z m-412 -2 c25 -37 50 -87 55 -112 29 -133
49 -319 35 -321 -5 0 -17 -2 -26 -4 -10 -2 -23 4 -29 13 -8 14 -9 13 -5 -8 l5
-25 -20 25 c-10 14 -36 57 -55 97 -43 84 -51 150 -39 317 8 123 8 123 79 18z
m269 -175 c12 -67 1 -156 -28 -222 -17 -39 -18 -39 -25 -15 l-8 25 -1 -24 c-2
-57 -13 -4 -21 101 l-8 113 2 -118 c3 -131 -5 -132 -34 -4 -10 45 -19 71 -19
57 0 -14 8 -59 19 -100 10 -41 18 -76 16 -77 -10 -10 -60 132 -69 192 -11 79
3 173 43 279 l23 59 49 -104 c28 -57 55 -130 61 -162z m325 53 c-5 -114 -21
-164 -78 -244 -40 -55 -127 -123 -141 -109 -7 7 12 31 58 73 37 34 58 57 47
51 -12 -6 -47 -34 -78 -62 -31 -28 -59 -50 -61 -47 -3 3 17 36 43 74 27 38 57
83 67 99 l17 30 -21 -25 c-12 -14 -45 -60 -74 -102 -41 -61 -53 -74 -59 -60
-3 9 -7 11 -7 5 -1 -7 -5 -13 -11 -13 -16 0 -11 56 10 113 27 71 67 127 186
255 78 83 100 102 103 87 2 -11 1 -67 -1 -125z m-803 100 c64 -44 93 -83 100
-138 4 -26 12 -68 20 -94 7 -26 9 -45 4 -42 -15 9 -10 -5 17 -54 14 -26 17
-36 7 -22 -9 14 -48 57 -85 95 -73 77 -83 95 -98 190 -6 35 -13 71 -16 79 -9
23 2 20 51 -14z m-192 -101 c170 -86 289 -190 342 -300 31 -65 33 -75 20 -88
-13 -14 -24 -7 -93 59 -42 42 -93 89 -113 105 -19 17 14 -17 73 -75 60 -58
108 -108 108 -112 0 -16 -20 -7 -57 24 l-38 32 40 -42 c21 -23 35 -42 31 -42
-20 0 -111 77 -161 137 -74 87 -237 333 -220 333 3 0 34 -14 68 -31z m1167
-114 c-87 -184 -143 -256 -241 -305 -71 -37 -65 -8 9 43 38 26 77 57 88 69 10
12 -1 6 -26 -13 -54 -42 -127 -89 -137 -89 -5 0 30 37 77 82 94 90 83 85 -28
-12 -74 -64 -111 -76 -55 -17 53 55 110 144 133 209 30 82 51 103 135 132 113
39 112 42 45 -99z m-1240 -26 c25 -5 61 -20 80 -33 41 -27 136 -155 101 -137
-12 7 -54 20 -93 30 l-72 18 -37 67 c-21 36 -35 66 -31 66 4 0 27 -5 52 -11z
m1391 -158 c-99 -115 -170 -160 -276 -180 -87 -16 -100 -12 -24 8 36 10 74 23
85 29 27 16 18 15 -54 -8 -87 -27 -121 -24 -47 4 86 33 135 55 135 61 0 3 -17
-2 -37 -11 -45 -19 -184 -64 -198 -64 -5 0 37 23 94 51 56 28 101 53 98 55 -3
3 -15 0 -27 -6 -38 -20 -31 -6 22 48 60 61 84 70 196 71 l84 1 -51 -59z
m-1337 3 c97 -20 166 -54 226 -110 60 -56 59 -71 -2 -21 -43 34 -80 57 -94 57
-4 0 19 -17 52 -39 61 -40 111 -87 102 -96 -3 -3 -41 16 -84 43 -91 57 -149
87 -184 96 -14 4 16 -15 65 -41 103 -55 185 -110 185 -123 0 -17 -18 -11 -80
29 -69 45 -167 81 -220 81 -38 0 -127 50 -137 76 -3 8 -24 28 -47 45 l-41 31
94 -6 c52 -4 126 -14 165 -22z m545 -3 c8 -14 7 -20 -4 -25 -11 -4 -15 2 -15
19 0 30 6 32 19 6z m-116 -48 c-3 -7 -6 -13 -8 -13 -2 0 -5 6 -8 13 -3 8 1 14
8 14 7 0 11 -6 8 -14z m207 -8 c0 -18 12 -19 28 -3 9 9 16 7 31 -6 12 -11 27
-15 40 -11 11 3 28 2 38 -4 10 -5 26 -12 36 -15 13 -4 17 -12 13 -28 -3 -13
-3 -17 0 -10 3 6 10 12 15 12 6 0 7 -4 4 -10 -3 -5 2 -10 12 -10 18 0 33 -18
61 -72 7 -16 18 -28 23 -28 5 0 9 -9 9 -19 0 -11 5 -23 11 -27 6 -3 9 -17 6
-30 -2 -13 2 -29 10 -36 9 -7 12 -22 8 -42 -5 -23 -4 -27 4 -16 6 8 11 11 11
5 -1 -5 -7 -19 -15 -29 -18 -24 -20 -73 -2 -79 8 -3 7 -10 -7 -23 -18 -19 -18
-18 -13 4 3 12 1 22 -4 22 -5 0 -9 -9 -9 -19 0 -11 -5 -23 -10 -26 -6 -4 -8
-11 -4 -16 3 -6 -1 -16 -9 -22 -9 -7 -17 -23 -19 -37 -2 -18 -9 -25 -22 -23
-11 1 -33 -13 -48 -30 -39 -41 -72 -57 -119 -57 -21 0 -49 -5 -63 -11 -14 -7
-33 -8 -43 -4 -10 4 -32 9 -50 11 -18 1 -41 8 -52 13 -11 6 -26 9 -33 6 -15
-5 -62 31 -54 43 2 4 -4 14 -16 21 -11 7 -17 8 -13 2 15 -25 -14 -8 -58 33
-28 26 -47 52 -47 65 0 12 -5 32 -12 44 -15 28 -19 77 -7 99 6 11 5 19 -2 23
-24 15 24 166 56 179 8 3 15 10 15 15 0 5 18 28 40 51 22 23 40 46 40 51 0 5
12 9 26 9 15 0 34 10 44 23 21 26 40 15 22 -13 -14 -23 -5 -25 20 -6 10 7 14
16 10 21 -4 4 3 4 16 1 12 -4 22 -3 22 3 0 8 9 12 53 20 4 0 7 -6 7 -14z m85
-5 c3 -5 1 -10 -4 -10 -6 0 -11 5 -11 10 0 6 2 10 4 10 3 0 8 -4 11 -10z m739
-26 c15 -6 12 -13 -21 -47 -54 -56 -104 -76 -188 -77 -53 0 -85 -7 -130 -27
-66 -28 -135 -41 -135 -25 0 9 106 46 193 68 15 3 26 9 23 11 -2 3 -46 -7 -98
-22 -51 -14 -102 -29 -113 -32 -14 -3 -17 -2 -10 5 6 6 48 20 94 32 103 26
146 47 191 95 l35 37 71 -6 c39 -3 79 -8 88 -12z m-1144 -75 c0 -6 -4 -7 -10
-4 -5 3 -10 11 -10 16 0 6 5 7 10 4 6 -3 10 -11 10 -16z m-227 -10 c65 -21
157 -75 157 -90 0 -13 -5 -12 -71 22 -34 17 -63 29 -64 27 -2 -2 25 -19 61
-37 74 -38 80 -53 8 -22 -53 24 -152 51 -180 50 -11 0 6 -7 36 -15 64 -17 192
-66 187 -71 -2 -2 -36 3 -75 12 -39 8 -116 19 -170 24 -54 5 -116 16 -138 25
-34 14 -36 14 -19 1 11 -9 30 -18 43 -22 29 -7 28 -20 -4 -26 -20 -3 -40 8
-99 59 l-74 62 67 7 c37 3 74 8 82 9 8 2 55 4 103 5 65 1 104 -4 150 -20z
m852 -39 c3 -5 1 -10 -4 -10 -6 0 -11 5 -11 10 0 6 2 10 4 10 3 0 8 -4 11 -10z
m473 -49 l72 -23 -80 -49 -80 -48 -105 2 -105 2 48 17 c69 24 40 22 -59 -5
-78 -22 -85 -23 -86 -7 -1 11 18 26 58 45 74 36 71 44 -5 10 -31 -14 -59 -25
-63 -25 -14 0 42 50 72 64 104 50 210 55 333 17z m-1342 -42 c69 -13 130 -44
137 -70 5 -18 -4 -19 -126 -21 l-132 -2 128 -3 c70 -2 127 -8 127 -13 0 -11
-29 -16 -165 -29 l-100 -10 133 5 c86 4 132 2 132 -5 0 -29 -188 -41 -306 -20
-94 16 -254 72 -254 88 0 8 207 72 265 82 62 10 96 10 161 -2z m934 7 c0 -3
-4 -8 -10 -11 -5 -3 -10 -1 -10 4 0 6 5 11 10 11 6 0 10 -2 10 -4z m282 -107
c72 -15 241 -80 231 -89 -11 -10 -125 -40 -152 -40 -12 0 -41 10 -64 22 -53
27 -145 47 -222 48 -51 1 -56 3 -35 12 15 6 70 8 135 5 83 -3 99 -2 65 5 -25
5 -87 7 -138 6 -73 -3 -90 -1 -80 8 33 32 164 43 260 23z m-1045 -31 c-3 -7
-5 -2 -5 12 0 14 2 19 5 13 2 -7 2 -19 0 -25z m-49 -58 c-9 -6 -53 -17 -97
-25 -44 -9 -104 -27 -133 -40 -30 -14 -78 -29 -108 -34 l-55 -10 47 2 47 2
-31 -32 c-38 -39 -43 -39 -124 -12 l-62 21 61 64 c60 63 62 64 111 63 58 -1
113 -17 62 -18 -16 -1 -27 -3 -25 -6 7 -6 239 14 274 24 40 12 54 13 33 1z
m1018 -11 c77 -23 133 -53 212 -113 64 -47 63 -48 -76 -66 -102 -13 -130 -8
-184 34 -18 13 -61 37 -95 52 -35 14 -63 31 -63 35 0 13 2 12 139 -21 68 -17
126 -28 128 -26 3 2 -59 19 -136 38 -78 18 -140 37 -138 43 4 12 74 13 132 3
32 -6 35 -6 16 3 -14 5 -51 12 -83 16 -31 3 -55 10 -52 14 10 17 131 9 200
-12z m-943 -36 c5 -26 4 -26 -9 -9 -7 10 -11 23 -8 27 8 14 11 11 17 -18z
m-184 -22 c-56 -23 -159 -87 -159 -97 0 -2 47 20 105 48 76 37 120 52 158 54
l52 4 -43 -16 c-49 -18 -52 -30 -3 -13 58 20 42 3 -38 -42 -44 -24 -78 -46
-76 -48 2 -2 38 15 79 38 82 45 95 49 75 25 -7 -9 -51 -35 -96 -57 -46 -22
-100 -55 -121 -72 -82 -69 -104 -80 -162 -79 -30 0 -71 3 -91 7 l-37 7 97 99
c97 100 159 141 238 160 79 19 88 11 22 -18z m866 -41 c-10 -11 -23 -20 -28
-20 -6 0 -2 9 8 20 10 11 23 20 28 20 6 0 2 -9 -8 -20z m119 -19 c78 -38 151
-112 216 -220 27 -46 49 -85 47 -87 -1 -1 -25 2 -52 8 -77 16 -168 61 -220
109 -51 47 -131 157 -121 167 8 8 74 -29 169 -95 42 -29 77 -51 77 -49 0 8
-153 117 -195 139 -28 14 -35 22 -23 25 9 2 40 -9 68 -23 29 -15 50 -22 47
-18 -3 5 -28 20 -56 33 -51 23 -65 40 -35 40 9 0 44 -13 78 -29z m-714 -43 c0
-6 -7 -5 -15 2 -8 7 -15 17 -15 22 0 6 7 5 15 -2 8 -7 15 -17 15 -22z m-1089
-8 c134 -42 147 -53 151 -139 l3 -70 -85 83 c-83 81 -150 136 -164 136 -4 0
19 -22 51 -49 32 -26 67 -58 77 -70 l19 -21 -34 7 c-80 15 -83 18 -102 69 -23
60 -28 84 -19 84 4 0 51 -13 103 -30z m998 26 c-2 -2 -38 -27 -79 -54 -41 -28
-106 -83 -145 -123 -49 -51 -55 -59 -20 -28 69 61 160 130 219 164 49 29 49
28 -31 -51 -44 -43 -95 -106 -114 -139 -19 -33 -49 -67 -66 -77 -39 -23 -138
-42 -159 -30 -14 8 -13 12 8 38 13 16 39 52 57 81 58 93 143 156 276 204 53
19 61 22 54 15z m608 -41 c-4 -8 -11 -15 -17 -15 -7 0 -7 6 0 21 13 23 26 19
17 -6z m-553 -22 c-10 -16 -33 -54 -52 -86 -20 -32 -56 -82 -80 -110 l-46 -52
43 40 c23 22 67 79 99 127 31 49 60 88 65 88 12 0 -1 -70 -16 -91 -7 -9 -34
-48 -61 -85 -27 -38 -63 -85 -80 -104 -17 -19 -21 -26 -8 -16 27 23 32 20 25
-16 -4 -22 -18 -34 -67 -58 -56 -27 -146 -54 -146 -43 0 2 20 46 45 97 58 119
143 241 198 285 14 11 14 6 -4 -35 -12 -27 -27 -55 -33 -63 -8 -11 -8 -13 2
-7 7 4 23 29 37 56 13 26 39 60 57 74 42 33 45 32 22 -1z m678 -57 c61 -66 93
-92 156 -124 86 -45 86 -45 98 -142 7 -54 7 -55 -13 -37 -11 10 -47 28 -79 40
-55 21 -61 26 -91 85 -53 104 -70 126 -133 175 -34 27 -58 52 -54 58 4 7 61
-42 137 -117 l131 -129 -114 123 c-62 67 -117 125 -121 128 -11 6 -12 24 -1
24 4 0 42 -38 84 -84z m383 45 c22 -10 55 -34 73 -54 l34 -35 -71 -12 c-40 -7
-83 -9 -96 -6 -20 5 -49 39 -89 104 -4 7 19 2 60 -13 75 -28 99 -28 30 1 -24
10 -42 22 -40 26 9 14 58 8 99 -11z m-996 -17 c-15 -18 -22 -13 -13 10 3 9 10
13 16 10 5 -3 4 -12 -3 -20z m-895 -33 c55 -38 114 -104 122 -136 3 -14 -1
-58 -11 -97 -9 -40 -19 -84 -22 -98 -4 -23 -7 -21 -30 25 -13 28 -45 80 -70
117 -42 62 -46 74 -51 143 -5 87 -2 89 62 46z m1374 13 c13 -9 41 -38 62 -66
22 -27 40 -45 40 -40 0 6 -16 31 -35 57 -23 30 -29 43 -17 36 29 -16 89 -86
113 -133 22 -42 100 -298 91 -298 -2 0 -30 14 -63 31 -115 62 -176 134 -229
272 -49 129 -50 177 -1 57 13 -30 28 -59 33 -65 9 -9 3 6 -38 101 -8 20 -12
39 -9 43 9 9 40 -32 93 -121 24 -43 47 -78 49 -78 6 0 -64 126 -99 178 -31 44
-27 52 10 26z m-432 -13 c-3 -9 -14 -52 -27 -96 -12 -44 -32 -104 -45 -134
-13 -30 -22 -56 -20 -58 6 -6 61 131 87 217 13 41 25 67 27 58 2 -10 8 -18 13
-18 12 0 11 -59 -2 -139 -14 -89 -51 -163 -107 -212 -44 -38 -110 -79 -129
-79 -17 0 15 256 38 304 39 83 183 220 165 157z m383 -146 c22 -49 45 -120 51
-156 10 -59 9 -75 -10 -147 -33 -122 -37 -125 -91 -55 -65 85 -78 106 -94 168
-19 73 -30 213 -20 262 7 36 8 36 15 13 l8 -25 1 27 c2 52 19 37 36 -33 10
-38 19 -68 22 -66 2 3 -3 32 -11 65 -19 71 -19 72 -6 72 12 0 25 -29 56 -130
12 -41 23 -67 23 -58 1 10 -12 60 -29 110 -25 78 -26 89 -10 68 11 -14 37 -65
59 -115z m-1534 110 c33 -9 70 -26 84 -38 28 -26 123 -159 117 -164 -2 -2 -30
3 -62 11 -33 8 -80 18 -106 21 -58 9 -76 28 -93 102 -23 95 -27 90 60 68z
m1254 -12 c0 15 6 27 11 27 7 0 9 -49 6 -137 -4 -126 -3 -129 4 -38 4 55 8
115 9 133 1 21 6 32 16 32 13 0 15 -11 11 -67 -5 -62 -5 -64 4 -20 12 69 20
70 21 1 0 -32 6 -98 13 -146 17 -120 -3 -206 -65 -287 l-19 -23 -11 28 c-68
174 -73 259 -27 474 11 52 12 53 19 25 l7 -30 1 28z m-858 -175 c29 -65 33
-83 33 -158 0 -69 -4 -93 -22 -127 -12 -24 -28 -43 -35 -43 -17 0 -61 149 -59
199 1 45 34 201 43 201 3 0 21 -33 40 -72z m-276 -14 c87 -17 115 -43 155
-143 17 -41 29 -75 27 -77 -1 -2 -30 5 -62 15 -33 10 -84 22 -113 26 -72 10
-104 38 -136 125 -14 39 -26 73 -26 76 0 5 61 -3 155 -22z m1059 -171 c7 -52
6 -54 -35 -98 -23 -25 -46 -42 -50 -38 -4 4 -11 31 -14 58 -6 47 -5 52 29 90
l36 40 -5 -30 c-6 -30 -6 -30 10 4 8 19 17 32 19 30 2 -2 6 -28 10 -56z m470
21 l-7 29 36 -29 c34 -27 36 -31 30 -69 -3 -22 -7 -41 -8 -43 -1 -1 -21 11
-43 28 -39 28 -42 33 -42 78 l1 47 19 -35 c19 -34 20 -34 14 -6z m-1398 -67
c43 -16 69 -47 79 -96 l7 -34 -43 7 c-65 10 -162 61 -203 106 -20 22 -36 44
-36 49 0 10 141 -13 196 -32z m1165 -19 c21 -41 21 -43 4 -75 -22 -40 -28 -41
-50 -7 -24 38 -9 122 22 124 2 0 12 -19 24 -42z m-57 -226 c16 -26 -79 -164
-177 -261 -44 -42 -60 -53 -79 -48 -12 3 -61 15 -107 27 -60 16 -103 21 -153
18 -61 -3 -67 -2 -51 10 33 25 106 53 248 94 161 47 251 87 291 129 l29 30
-59 -35 c-62 -37 -137 -68 -195 -81 l-34 -7 34 47 c41 56 55 65 111 66 24 0
61 4 83 8 22 5 43 9 47 10 4 0 9 -3 12 -7z m-244 -33 c0 -5 -19 -30 -42 -55
-35 -37 -61 -51 -138 -79 -52 -19 -95 -35 -96 -35 0 0 14 30 33 66 18 37 33
73 33 81 0 7 10 18 23 23 32 13 187 12 187 -1z m-248 -72 c-16 -35 -45 -79
-64 -98 -35 -35 -154 -129 -163 -129 -3 0 -5 40 -5 88 0 101 1 104 90 148 56
28 162 65 169 58 2 -1 -10 -32 -27 -67z m-269 -266 c-10 -15 -33 -51 -52 -80
-44 -66 -65 -65 -69 5 -4 68 26 144 85 218 l48 58 3 -87 c2 -70 -1 -92 -15
-114z m380 73 c40 -9 83 -22 96 -29 23 -12 23 -12 -36 -58 -33 -25 -76 -54
-96 -63 -34 -16 -40 -16 -124 2 -48 10 -118 18 -155 18 l-67 0 31 39 c77 97
192 127 351 91z m-162 -169 c40 -9 74 -17 76 -19 7 -6 -144 -66 -207 -82 -108
-27 -172 0 -140 60 30 57 126 71 271 41z m-833 -427 c8 -11 22 -108 15 -108
-2 0 -42 11 -90 25 -52 16 -129 29 -188 32 l-100 7 75 18 c62 15 152 28 261
37 9 0 21 -5 27 -11z m146 -27 c31 -13 47 -27 50 -43 2 -13 11 -51 19 -85 7
-35 13 -63 12 -63 -8 0 -161 92 -176 106 -14 12 -19 30 -19 67 l0 50 34 -6
c19 -3 55 -15 80 -26z m-293 -50 l34 -8 -40 -11 c-58 -17 -77 -15 -137 14
l-53 25 81 -6 c44 -4 96 -10 115 -14z m423 -26 c20 -19 42 -48 51 -64 19 -39
28 -102 16 -121 -8 -12 -15 -10 -41 15 -42 40 -70 96 -77 156 -7 60 3 62 51
14z m-223 -46 l71 -33 -51 -17 c-28 -10 -64 -27 -79 -37 -53 -38 -65 -36 -121
14 -52 46 -77 81 -67 91 3 3 20 9 38 14 57 14 134 2 209 -32z m144 -82 c43
-22 126 -90 122 -101 -2 -6 -19 -19 -38 -28 -72 -37 -219 -14 -293 45 l-29 24
35 26 c68 52 143 65 203 34z"/>
<path d="M1961 4614 c0 -11 3 -14 6 -6 3 7 2 16 -1 19 -3 4 -6 -2 -5 -13z"/>
<path d="M1946 4554 c-4 -20 -5 -38 -3 -40 3 -3 8 11 11 32 4 20 5 38 3 40 -3
3 -8 -11 -11 -32z"/>
<path d="M1631 4564 c0 -11 3 -14 6 -6 3 7 2 16 -1 19 -3 4 -6 -2 -5 -13z"/>
<path d="M1682 4540 c0 -14 2 -19 5 -12 2 6 2 18 0 25 -3 6 -5 1 -5 -13z"/>
<path d="M1642 4530 c-1 -8 10 -60 23 -115 13 -55 24 -91 24 -80 0 11 -10 63
-23 115 -13 52 -24 88 -24 80z"/>
<path d="M1693 4470 c0 -25 2 -35 4 -22 2 12 2 32 0 45 -2 12 -4 2 -4 -23z"/>
<path d="M1630 4415 c0 -5 5 -17 10 -25 5 -8 10 -10 10 -5 0 6 -5 17 -10 25
-5 8 -10 11 -10 5z"/>
<path d="M1703 4370 c0 -30 2 -43 4 -27 2 15 2 39 0 55 -2 15 -4 2 -4 -28z"/>
<path d="M1851 4384 c0 -11 3 -14 6 -6 3 7 2 16 -1 19 -3 4 -6 -2 -5 -13z"/>
<path d="M1961 4379 c-6 -18 -11 -37 -10 -43 0 -6 7 7 15 28 8 22 12 41 10 43
-2 2 -9 -10 -15 -28z"/>
<path d="M1460 4580 c6 -11 13 -20 16 -20 2 0 0 9 -6 20 -6 11 -13 20 -16 20
-2 0 0 -9 6 -20z"/>
<path d="M1501 4513 c25 -43 39 -60 39 -50 0 9 -51 87 -57 87 -3 0 5 -17 18
-37z"/>
<path d="M1541 4313 c35 -59 49 -78 49 -69 0 11 -60 106 -67 106 -2 0 6 -17
18 -37z"/>
<path d="M2275 4428 c-16 -24 -22 -38 -14 -31 15 12 53 73 46 73 -2 0 -17 -19
-32 -42z"/>
<path d="M1954 4229 c-3 -5 6 -9 20 -9 31 0 34 6 6 13 -11 3 -23 1 -26 -4z"/>
<path d="M1610 4170 c-6 -11 -8 -20 -6 -20 3 0 10 9 16 20 6 11 8 20 6 20 -3
0 -10 -9 -16 -20z"/>
<path d="M2070 4151 c0 -5 7 -12 16 -15 14 -5 15 -4 4 9 -14 17 -20 19 -20 6z"/>
<path d="M1895 4130 c3 -5 10 -10 16 -10 5 0 9 5 9 10 0 6 -7 10 -16 10 -8 0
-12 -4 -9 -10z"/>
<path d="M1777 4124 c-14 -14 -7 -25 13 -22 12 2 21 8 21 13 0 12 -24 18 -34
9z"/>
<path d="M1701 4096 c-7 -8 -8 -17 -3 -20 6 -3 15 1 21 8 7 8 8 17 3 20 -6 3
-15 -1 -21 -8z"/>
<path d="M1880 4100 c8 -5 22 -10 30 -10 13 0 13 1 0 10 -8 5 -22 10 -30 10
-13 0 -13 -1 0 -10z"/>
<path d="M1530 4069 c0 -11 4 -18 10 -14 5 3 7 12 3 20 -7 21 -13 19 -13 -6z"/>
<path d="M1994 4074 c3 -8 6 -18 6 -20 0 -2 5 -4 10 -4 16 0 11 27 -6 34 -12
5 -15 2 -10 -10z"/>
<path d="M1807 4073 c-15 -15 -6 -22 13 -11 16 10 24 10 40 1 16 -11 18 -10
14 2 -6 15 -55 21 -67 8z"/>
<path d="M1721 4044 c0 -11 3 -14 6 -6 3 7 2 16 -1 19 -3 4 -6 -2 -5 -13z"/>
<path d="M1962 4030 c14 -22 24 -19 15 5 -4 8 -11 15 -17 15 -6 0 -6 -7 2 -20z"/>
<path d="M1670 4030 c-9 -6 -10 -10 -3 -10 6 0 15 5 18 10 8 12 4 12 -15 0z"/>
<path d="M1848 4033 c-16 -2 -28 -9 -28 -15 0 -5 -6 -8 -14 -5 -8 3 -17 -1
-21 -10 -4 -12 -9 -13 -17 -5 -14 14 -58 -24 -58 -50 0 -10 -5 -18 -10 -18 -6
0 -3 -11 6 -24 8 -14 16 -29 16 -33 1 -21 12 -33 29 -33 10 0 19 -4 19 -10 0
-14 41 -34 49 -23 9 14 41 24 41 13 0 -14 21 -12 54 3 24 10 27 17 24 50 -2
20 0 37 5 37 5 0 5 10 2 21 -5 15 -4 19 4 15 6 -4 11 0 11 8 0 9 -7 16 -15 16
-8 0 -15 8 -15 19 0 15 -42 55 -52 50 -2 -1 -15 -4 -30 -6z m58 -70 c-7 -7
-26 7 -26 19 0 6 6 6 15 -2 9 -7 13 -15 11 -17z m-45 -15 c22 -28 25 -52 4
-44 -9 3 -15 0 -15 -9 0 -8 -7 -15 -17 -15 -9 0 -13 3 -10 7 4 3 -1 11 -10 18
-16 12 -9 40 8 30 5 -4 9 3 9 14 0 27 7 26 31 -1z m14 -98 c-3 -5 -10 -10 -16
-10 -5 0 -9 5 -9 10 0 6 7 10 16 10 8 0 12 -4 9 -10z"/>
<path d="M2030 4003 c0 -4 5 -15 10 -23 8 -13 10 -13 10 2 0 9 -4 20 -10 23
-5 3 -10 3 -10 -2z"/>
<path d="M1500 3970 c0 -19 3 -21 12 -12 9 9 9 15 0 24 -9 9 -12 7 -12 -12z"/>
<path d="M2000 3970 c0 -8 5 -22 10 -30 9 -13 10 -13 10 0 0 8 -5 22 -10 30
-9 13 -10 13 -10 0z"/>
<path d="M2160 3960 c0 -5 5 -10 10 -10 6 0 10 5 10 10 0 6 -4 10 -10 10 -5 0
-10 -4 -10 -10z"/>
<path d="M1610 3891 c0 -12 5 -21 10 -21 6 0 10 6 10 14 0 8 -4 18 -10 21 -5
3 -10 -3 -10 -14z"/>
<path d="M1971 3894 c0 -11 3 -14 6 -6 3 7 2 16 -1 19 -3 4 -6 -2 -5 -13z"/>
<path d="M2150 3840 c0 -5 5 -10 10 -10 6 0 10 5 10 10 0 6 -4 10 -10 10 -5 0
-10 -4 -10 -10z"/>
<path d="M1676 3831 c-3 -5 1 -14 9 -21 12 -10 15 -10 15 3 0 19 -16 31 -24
18z"/>
<path d="M1620 3821 c0 -5 5 -13 10 -16 6 -3 10 -2 10 4 0 5 -4 13 -10 16 -5
3 -10 2 -10 -4z"/>
<path d="M1750 3809 c7 -11 14 -19 16 -16 7 7 -7 37 -17 37 -6 0 -5 -9 1 -21z"/>
<path d="M2007 3806 c-3 -8 -2 -18 3 -21 13 -8 24 15 12 27 -6 6 -11 4 -15 -6z"/>
<path d="M1935 3780 c-3 -5 -1 -10 4 -10 6 0 11 5 11 10 0 6 -2 10 -4 10 -3 0
-8 -4 -11 -10z"/>
<path d="M1858 3773 c6 -2 18 -2 25 0 6 3 1 5 -13 5 -14 0 -19 -2 -12 -5z"/>
<path d="M1675 3760 c-3 -6 1 -13 10 -16 19 -8 30 0 20 15 -8 14 -22 14 -30 1z"/>
<path d="M1772 3758 c3 -7 13 -15 22 -16 12 -3 17 1 14 10 -3 7 -13 15 -22 16
-12 3 -17 -1 -14 -10z"/>
<path d="M1930 3738 c0 -4 7 -8 15 -8 8 0 15 4 15 8 0 5 -7 9 -15 9 -8 0 -15
-4 -15 -9z"/>
<path d="M1850 3731 c0 -12 29 -23 41 -15 5 3 7 10 4 15 -8 12 -45 12 -45 0z"/>
<path d="M1750 3720 c0 -15 21 -23 32 -12 6 6 2 11 -11 15 -12 3 -21 1 -21 -3z"/>
<path d="M1700 3632 c0 -12 68 -37 77 -28 3 3 -8 8 -23 12 -16 4 -35 11 -41
17 -9 6 -13 6 -13 -1z"/>
<path d="M1910 3610 c-11 -7 -5 -8 20 -4 43 8 51 14 19 14 -13 0 -31 -5 -39
-10z"/>
<path d="M2438 4153 c7 -3 16 -2 19 1 4 3 -2 6 -13 5 -11 0 -14 -3 -6 -6z"/>
<path d="M2335 3996 c-55 -19 -95 -34 -90 -35 6 0 57 15 115 34 58 18 98 34
90 34 -8 0 -60 -15 -115 -33z"/>
<path d="M1241 3986 c2 -2 31 -6 64 -9 39 -4 50 -3 30 2 -31 9 -102 14 -94 7z"/>
<path d="M1378 3963 c6 -2 18 -2 25 0 6 3 1 5 -13 5 -14 0 -19 -2 -12 -5z"/>
<path d="M1088 3943 c12 -2 30 -2 40 0 9 3 -1 5 -23 4 -22 0 -30 -2 -17 -4z"/>
<path d="M1050 3800 c-18 -12 -2 -12 25 0 13 6 15 9 5 9 -8 0 -22 -4 -30 -9z"/>
<path d="M1272 3705 c-40 -19 -72 -37 -72 -40 0 -3 26 7 58 23 31 15 68 33 82
39 14 7 20 12 15 12 -6 1 -43 -15 -83 -34z"/>
<path d="M2090 3390 c6 -11 13 -20 16 -20 2 0 0 9 -6 20 -6 11 -13 20 -16 20
-2 0 0 -9 6 -20z"/>
<path d="M1573 3470 c-70 -130 -68 -141 2 -16 31 54 55 102 53 106 -2 5 -27
-36 -55 -90z"/>
<path d="M1663 3475 c0 -22 2 -30 4 -17 2 12 2 30 0 40 -3 9 -5 -1 -4 -23z"/>
<path d="M1893 3435 c0 -22 2 -30 4 -17 2 12 2 30 0 40 -3 9 -5 -1 -4 -23z"/>
<path d="M1902 3370 c0 -14 2 -19 5 -12 2 6 2 18 0 25 -3 6 -5 1 -5 -13z"/>
<path d="M1951 3374 c0 -11 3 -14 6 -6 3 7 2 16 -1 19 -3 4 -6 -2 -5 -13z"/>
<path d="M1911 3324 c0 -11 3 -14 6 -6 3 7 2 16 -1 19 -3 4 -6 -2 -5 -13z"/>
<path d="M2011 3314 c0 -11 3 -14 6 -6 3 7 2 16 -1 19 -3 4 -6 -2 -5 -13z"/>
<path d="M1733 3430 c0 -30 2 -43 4 -27 2 15 2 39 0 55 -2 15 -4 2 -4 -28z"/>
<path d="M3308 4283 c6 -2 18 -2 25 0 6 3 1 5 -13 5 -14 0 -19 -2 -12 -5z"/>
<path d="M3358 4273 c7 -3 16 -2 19 1 4 3 -2 6 -13 5 -11 0 -14 -3 -6 -6z"/>
<path d="M3450 4249 c135 -42 239 -84 364 -146 830 -415 1279 -1341 1095
-2258 -45 -225 -153 -492 -272 -673 -384 -584 -1023 -932 -1710 -932 -175 0
-290 12 -379 40 -91 29 -91 29 -68 76 19 37 19 47 8 117 -6 42 -15 77 -20 77
-4 0 -20 -19 -35 -41 -23 -35 -27 -52 -26 -102 l1 -60 -50 51 -51 50 23 47
c21 44 22 50 10 121 -7 41 -16 74 -21 74 -17 0 -54 -67 -60 -110 l-6 -45 -16
36 c-9 20 -24 65 -34 100 -14 51 -15 63 -4 67 35 12 73 61 95 125 19 53 21 67
9 67 -24 0 -70 -28 -96 -60 -14 -16 -29 -30 -33 -30 -4 0 -4 28 0 62 4 44 12
68 24 78 28 23 42 54 42 92 0 18 4 48 9 66 11 37 9 38 -33 13 -62 -39 -67 -58
-57 -252 5 -96 12 -183 17 -193 6 -16 1 -15 -32 8 -31 21 -50 26 -98 26 l-60
0 30 -31 c53 -58 104 -89 144 -89 36 0 38 -2 78 -82 41 -82 100 -155 177 -215
l40 -32 -75 20 c-107 30 -163 64 -228 137 -115 130 -188 199 -250 234 l-63 35
-2 91 c-2 73 -6 94 -21 111 -25 28 -56 23 -75 -11 -13 -23 -14 -34 -3 -74 7
-26 22 -60 33 -76 l21 -29 -29 8 c-15 4 -62 14 -103 23 l-75 15 -22 60 c-28
77 -28 75 5 75 48 0 105 50 135 118 51 113 47 269 -14 516 -16 66 -29 144 -29
173 0 29 -4 53 -10 53 -14 0 -142 -130 -177 -180 -49 -72 -81 -143 -109 -240
-21 -75 -25 -106 -22 -183 4 -120 31 -176 109 -229 47 -32 55 -42 67 -88 7
-29 11 -55 8 -57 -8 -8 -106 27 -168 60 -101 52 -190 173 -213 287 -6 30 1 23
51 -50 31 -47 84 -117 117 -157 49 -60 69 -76 113 -93 30 -11 57 -20 60 -20 3
0 -27 36 -67 80 -40 43 -96 110 -124 149 -56 74 -165 245 -165 259 0 4 16 14
36 21 52 19 124 91 124 125 0 52 -56 47 -113 -10 -20 -21 -37 -32 -37 -26 0 6
11 47 25 90 l25 79 54 6 c96 10 165 57 135 93 -15 18 -50 18 -96 -1 -20 -8
-38 -14 -39 -12 -2 2 10 20 27 40 25 31 37 37 68 37 81 0 167 47 159 87 -4 22
-56 29 -100 14 -27 -9 -29 -9 -23 7 17 39 17 108 2 121 -46 38 -96 -41 -97
-151 0 -61 -4 -73 -34 -115 -18 -27 -44 -68 -56 -93 l-23 -45 -12 50 c-12 44
-43 85 -66 85 -18 0 -31 -45 -27 -92 3 -26 19 -74 36 -106 28 -55 29 -62 20
-113 -6 -30 -8 -91 -5 -137 l5 -82 -33 29 c-44 38 -73 47 -92 28 -35 -35 21
-114 117 -162 35 -18 53 -36 70 -67 12 -24 35 -57 52 -74 l30 -32 -64 5 c-53
5 -67 2 -88 -15 -32 -27 -19 -51 38 -71 35 -13 54 -13 131 -2 110 15 115 13
247 -103 116 -102 224 -181 340 -247 49 -28 92 -54 96 -57 4 -4 -22 -5 -57 -4
-52 3 -65 7 -70 22 -10 32 -66 78 -113 95 -167 56 -396 -53 -531 -254 -47 -70
-104 -172 -99 -177 2 -2 24 7 49 19 40 20 59 22 229 23 190 1 240 9 315 46 73
37 114 77 144 142 l30 62 94 -8 c75 -6 113 -15 197 -49 228 -92 507 -143 765
-143 184 1 278 11 453 50 618 137 1134 542 1412 1109 93 190 148 368 187 600
25 152 25 499 -1 635 -43 233 -97 402 -187 585 -259 527 -719 915 -1280 1080
-46 13 -91 24 -99 24 -8 0 14 -9 50 -20z m-2075 -2329 c-10 -38 -58 -123 -74
-128 -11 -4 -12 6 -6 49 9 64 21 98 43 122 16 18 17 18 30 0 7 -10 10 -28 7
-43z m109 -79 c14 -22 -80 -71 -135 -71 -32 0 -32 0 -13 21 36 41 134 74 148
50z m106 -193 c-21 -46 -49 -118 -61 -160 l-23 -77 -23 37 c-31 51 -29 79 12
140 36 52 116 142 128 142 3 0 -12 -37 -33 -82z m60 0 c0 -31 -6 -41 -40 -68
-22 -17 -40 -29 -40 -26 0 4 14 40 32 82 33 79 48 83 48 12z m-530 27 c18 -22
31 -101 24 -146 -8 -46 -15 -44 -43 16 -39 83 -25 183 19 130z m245 4 c17 -26
-64 -69 -130 -69 l-28 0 23 25 c12 13 41 31 64 39 51 18 63 19 71 5z m315
-160 c17 -88 13 -97 -87 -187 l-73 -65 0 37 c0 44 28 183 41 209 10 18 86 77
99 77 4 0 13 -32 20 -71z m-204 -91 c24 -48 25 -53 15 -136 -6 -48 -11 -90
-11 -93 0 -3 -23 16 -51 42 -50 47 -52 49 -46 91 8 57 47 159 58 152 5 -3 21
-28 35 -56z m-206 36 c0 -17 -36 -62 -63 -81 -80 -55 -90 -33 -18 38 41 42 81
63 81 43z m445 -149 c10 -102 -5 -131 -98 -194 -42 -28 -79 -56 -83 -62 -22
-36 -34 113 -14 166 14 36 173 187 182 172 4 -6 10 -43 13 -82z m-300 -86 c20
-18 41 -41 47 -53 16 -28 36 -226 25 -233 -24 -15 -99 72 -117 136 -13 46 -13
181 0 181 5 0 25 -14 45 -31z m-353 -22 c28 -23 91 -117 83 -125 -8 -8 -93 48
-119 79 -49 58 -21 94 36 46z m644 -88 c-13 -80 -79 -172 -133 -185 -30 -8
-43 8 -43 54 0 50 14 68 90 112 38 22 72 45 75 50 13 21 17 8 11 -31z m521
-40 c-7 -54 -20 -79 -43 -79 -25 0 -21 63 8 102 30 43 42 35 35 -23z m-408
-200 c12 -36 13 -94 2 -124 -7 -17 -11 -15 -35 22 -32 48 -45 115 -26 138 17
21 45 4 59 -36z m466 9 c-21 -71 -74 -142 -92 -124 -13 13 11 79 41 111 39 41
61 46 51 13z m-990 -23 l40 -18 -30 -7 c-84 -21 -190 -4 -190 30 0 32 105 29
180 -5z m440 -137 c85 -21 184 -64 225 -99 20 -17 21 -20 5 -14 -75 26 -138 9
-116 -32 14 -28 68 -45 148 -47 35 -1 67 -7 71 -12 39 -58 80 -107 100 -120
47 -31 13 -23 -84 19 -210 93 -484 280 -484 332 0 6 12 4 135 -27z m405 -28
c16 -12 35 -30 40 -41 10 -17 7 -19 -24 -19 -27 0 -44 10 -83 46 l-48 45 42
-4 c23 -3 56 -15 73 -27z m184 -81 c12 -63 -1 -139 -25 -139 -22 0 -29 112
-10 149 16 29 27 26 35 -10z m-368 -24 c19 -8 44 -22 57 -31 21 -15 19 -16
-41 -11 -63 5 -118 30 -107 47 9 14 51 12 91 -5z m-209 -110 c16 -9 36 -28 47
-42 15 -21 16 -27 5 -34 -31 -20 -137 12 -204 60 l-50 36 40 5 c53 7 128 -5
162 -25z m729 -41 c5 -37 2 -59 -11 -84 -13 -25 -19 -30 -26 -19 -18 30 -21
95 -5 134 20 48 34 37 42 -31z m-896 21 c14 -12 40 -32 59 -45 l34 -24 -89
-22 c-49 -13 -97 -23 -106 -24 -22 0 -88 57 -88 76 0 20 119 76 145 68 11 -4
31 -16 45 -29z m-170 -92 l35 -37 -105 -53 c-58 -29 -125 -72 -150 -94 -48
-43 -38 -43 20 1 19 15 57 40 85 56 l49 28 -23 -39 c-38 -64 -49 -72 -99 -79
-26 -4 -57 -8 -69 -10 -19 -4 -21 -1 -14 13 40 74 196 251 222 251 7 0 29 -17
49 -37z m410 -7 c0 -7 -13 -33 -29 -58 -45 -71 -131 -123 -233 -142 -36 -7
-38 -5 -38 19 0 60 53 140 114 172 29 15 150 33 174 25 6 -2 12 -10 12 -16z
m-258 -39 c-24 -25 -52 -87 -52 -115 0 -10 -6 -27 -14 -37 -12 -16 -25 -19
-97 -16 -46 1 -85 4 -87 6 -9 9 11 44 51 89 37 42 53 52 127 76 47 15 87 26
89 24 3 -2 -5 -14 -17 -27z"/>
<path d="M3000 2919 c-8 -4 -67 -32 -130 -60 -102 -47 -122 -52 -174 -50 -72
2 -103 -15 -108 -61 -3 -30 -12 -39 -133 -111 -197 -118 -235 -145 -235 -167
0 -22 28 -40 62 -40 32 0 133 50 189 92 46 36 82 58 93 58 3 0 6 -62 6 -137 0
-76 5 -219 10 -318 27 -518 26 -555 -11 -555 -22 0 -76 26 -146 70 -50 32 -83
39 -83 17 0 -20 53 -98 91 -134 90 -85 207 -81 256 9 19 34 22 181 16 838 -2
250 1 313 16 318 21 7 279 186 303 210 16 16 -2 33 -22 21z m-331 -526 c-2
-160 -2 -163 -10 -78 -8 81 -3 245 7 245 2 0 3 -75 3 -167z"/>
<path d="M4224 2815 l-20 -26 -213 -9 c-238 -9 -259 -15 -228 -64 27 -41 75
-50 225 -42 l134 7 -22 -38 c-33 -54 -247 -469 -334 -648 -43 -86 -87 -162
-105 -179 -30 -29 -31 -29 -52 -10 -12 10 -39 52 -61 92 -65 119 -88 128 -88
38 0 -122 69 -235 152 -251 83 -16 139 40 248 245 40 74 89 164 110 200 20 36
60 113 89 172 29 59 88 164 131 234 44 70 80 130 80 135 0 18 30 24 140 31
177 11 258 22 272 36 6 6 10 12 7 13 -22 4 -64 9 -184 20 -125 12 -142 16
-160 37 -12 14 -35 25 -61 29 -36 5 -43 2 -60 -22z m-22 -207 c-75 -127 -147
-245 -155 -253 -22 -22 92 184 128 233 45 59 56 67 27 20z"/>
<path d="M3147 2609 c-150 -99 -200 -246 -112 -327 l36 -33 -36 -42 c-75 -87
-135 -247 -135 -359 0 -109 36 -136 163 -124 86 8 155 43 204 103 42 51 92
176 97 241 4 44 7 49 63 89 55 40 75 70 43 66 -19 -2 -184 -49 -234 -67 -38
-13 -65 -45 -66 -78 0 -28 16 -30 77 -9 32 11 59 18 60 17 1 -1 -19 -40 -45
-87 -52 -94 -153 -204 -197 -215 -80 -20 -72 117 17 301 45 94 105 155 152
155 46 0 64 57 25 83 -17 13 -27 13 -78 -1 -69 -19 -91 -13 -91 25 0 69 147
225 194 207 22 -8 20 -30 -9 -92 -28 -61 -31 -82 -11 -82 32 0 49 16 72 64 28
59 30 86 9 126 -39 76 -118 92 -198 39z m-187 -590 c-17 -41 -28 -60 -24 -44
7 34 45 127 50 122 2 -2 -10 -37 -26 -78z m-33 -101 c-3 -8 -6 -5 -6 6 -1 11
2 17 5 13 3 -3 4 -12 1 -19z"/>
</g>
</svg>
